# Blender 4.4.0
# www.blender.org
mtllib box.mtl
o Cube
v -1.500000 -1.500000 1.500000
v -1.500000 1.500000 1.500000
v -1.500000 -1.500000 -1.500000
v -1.500000 1.500000 -1.500000
v 1.500000 -1.500000 1.500000
v 1.500000 1.500000 1.500000
v 1.500000 -1.500000 -1.500000
v 1.500000 1.500000 -1.500000
vn 1.0000 -0.0000 -0.0000
vn -1.0000 -0.0000 -0.0000
vn -0.0000 -0.0000 -1.0000
vn -0.0000 1.0000 -0.0000
vn -0.0000 -1.0000 -0.0000
s 0
f 1//1 3//1 4//1 2//1
f 7//2 5//2 6//2 8//2
f 5//3 1//3 2//3 6//3
f 3//4 1//4 5//4 7//4
f 8//5 6//5 2//5 4//5
